<svg width="15" height="15" viewBox="0 0 15 15" fill="none" xmlns="http://www.w3.org/2000/svg">
<path d="M6.31844 11.3438H3.94971C3.69346 11.3438 3.48096 11.1313 3.48096 10.875V7.67502C3.48096 7.02502 4.0122 6.49376 4.6622 6.49376H6.31844C6.57469 6.49376 6.78719 6.70626 6.78719 6.96251V10.8688C6.78719 11.1313 6.57469 11.3438 6.31844 11.3438ZM4.41846 10.4063H5.84969V7.43752H4.6622C4.53095 7.43752 4.41846 7.54374 4.41846 7.68124V10.4063Z" fill="white"/>
<path d="M8.68126 11.3438H6.3125C6.05625 11.3438 5.84375 11.1313 5.84375 10.875V4.83749C5.84375 4.18749 6.37499 3.65623 7.02499 3.65623H7.975C8.625 3.65623 9.15624 4.18749 9.15624 4.83749V10.875C9.14999 11.1313 8.94376 11.3438 8.68126 11.3438ZM6.78749 10.4063H8.21874V4.83749C8.21874 4.70624 8.1125 4.59373 7.975 4.59373H7.02499C6.89374 4.59373 6.78125 4.69999 6.78125 4.83749V10.4063H6.78749Z" fill="white"/>
<path d="M11.0499 11.3438H8.68115C8.4249 11.3438 8.2124 11.1313 8.2124 10.875V8.03123C8.2124 7.77498 8.4249 7.56248 8.68115 7.56248H10.3374C10.9874 7.56248 11.5186 8.09374 11.5186 8.74374V10.875C11.5186 11.1313 11.3124 11.3438 11.0499 11.3438ZM9.1499 10.4063H10.5811V8.74374C10.5811 8.61249 10.4749 8.49998 10.3374 8.49998H9.1499V10.4063Z" fill="white"/>
<path d="M9.375 14.2188H5.625C2.23125 14.2188 0.78125 12.7688 0.78125 9.375V5.625C0.78125 2.23125 2.23125 0.78125 5.625 0.78125H9.375C12.7688 0.78125 14.2188 2.23125 14.2188 5.625V9.375C14.2188 12.7688 12.7688 14.2188 9.375 14.2188ZM5.625 1.71875C2.74375 1.71875 1.71875 2.74375 1.71875 5.625V9.375C1.71875 12.2563 2.74375 13.2812 5.625 13.2812H9.375C12.2563 13.2812 13.2812 12.2563 13.2812 9.375V5.625C13.2812 2.74375 12.2563 1.71875 9.375 1.71875H5.625Z" fill="white"/>
</svg>
