<svg width="26" height="25" viewBox="0 0 26 25" fill="none" xmlns="http://www.w3.org/2000/svg">
<path d="M18.2603 21.125C17.2395 22.1146 16.1249 21.9583 15.052 21.4896C13.9166 21.0104 12.8749 20.9896 11.677 21.4896C10.177 22.1354 9.3853 21.9479 8.48947 21.125C3.40614 15.8854 4.15614 7.90625 9.92697 7.61458C11.3332 7.6875 12.3124 8.38542 13.1353 8.44792C14.3645 8.19792 15.5416 7.47917 16.8541 7.57292C18.427 7.69792 19.6145 8.32292 20.3957 9.44792C17.1457 11.3958 17.9166 15.6771 20.8957 16.875C20.302 18.4375 19.5311 19.9896 18.2499 21.1354L18.2603 21.125ZM13.0311 7.55208C12.8749 5.22917 14.7603 3.3125 16.927 3.125C17.2291 5.8125 14.4895 7.8125 13.0311 7.55208Z" fill="white"/>
</svg>
