<svg width="15" height="15" viewBox="0 0 15 15" fill="none" xmlns="http://www.w3.org/2000/svg">
<path d="M7.42539 9.06796H7.4582C8.16133 9.08671 8.72383 9.65858 8.72383 10.3617C8.72383 10.9617 8.31602 11.4633 7.76289 11.6133V12.1383C7.76289 12.3258 7.61289 12.4758 7.42539 12.4758C7.23789 12.4758 7.08789 12.3258 7.08789 12.1383V11.6133C6.81246 11.5392 6.56909 11.3765 6.3954 11.1503C6.22171 10.9241 6.12737 10.6469 6.12695 10.3617C6.12695 10.1742 6.27695 10.0242 6.46445 10.0242C6.65195 10.0242 6.80195 10.1742 6.80195 10.3617C6.80195 10.7086 7.07852 10.9851 7.4207 10.9851C7.76289 10.9851 8.04414 10.7039 8.04414 10.3617C8.04414 10.0195 7.76289 9.73827 7.4207 9.73827H7.38789C7.05068 9.72912 6.73032 9.58886 6.49487 9.34729C6.25943 9.10571 6.12744 8.78186 6.12695 8.44452C6.12695 7.84452 6.53477 7.34296 7.08789 7.19296V6.66796C7.08789 6.48046 7.23789 6.33046 7.42539 6.33046C7.61289 6.33046 7.76289 6.48046 7.76289 6.66796V7.19296C8.31602 7.34296 8.72383 7.84452 8.72383 8.44452C8.72383 8.63202 8.57383 8.78202 8.38633 8.78202C8.19883 8.78202 8.04883 8.63202 8.04883 8.44452C8.04883 8.10233 7.76758 7.82108 7.42539 7.82108C7.0832 7.82108 6.80195 8.10233 6.80195 8.44452C6.80195 8.78671 7.0832 9.06796 7.42539 9.06796Z" fill="white"/>
<path d="M4.93687 2.39062L6.24281 3.91875L6.10172 4.07625C3.41391 4.67906 1.40625 7.07953 1.40625 9.94921C1.40625 12.472 3.45375 14.5195 5.97656 14.5195H8.86875C11.3916 14.5195 13.4391 12.4725 13.4391 9.94968C13.4438 7.07953 11.4361 4.67906 8.74828 4.07625C8.75921 3.97719 8.7413 3.87709 8.69672 3.78796L9.80766 2.51625L9.87938 2.40562C9.96312 2.22296 9.98455 2.01785 9.94035 1.82183C9.89615 1.62581 9.78878 1.44973 9.63476 1.32069C9.48073 1.19164 9.28858 1.11676 9.08784 1.10758C8.88711 1.09839 8.68892 1.1554 8.52375 1.26984L8.12859 0.801089C8.03995 0.701893 7.9314 0.622488 7.81002 0.568049C7.68864 0.513611 7.55715 0.48536 7.42412 0.485139C7.29109 0.484918 7.1595 0.512731 7.03794 0.566766C6.91638 0.620801 6.80756 0.699844 6.71859 0.798746L6.30469 1.26093C6.13994 1.14411 5.9413 1.08483 5.73948 1.09225C5.53766 1.09968 5.3439 1.17339 5.18819 1.302C5.03247 1.43061 4.92347 1.60694 4.87804 1.80372C4.83261 2.0005 4.85329 2.20677 4.93687 2.39062ZM6.71766 3.03984L5.92266 2.12109C6.10735 2.21009 6.31634 2.23536 6.51692 2.19295C6.71751 2.15054 6.89838 2.04285 7.03125 1.88671L7.40625 1.40015L7.8225 1.89328C7.95228 2.0442 8.12736 2.14916 8.32164 2.19249C8.51592 2.23582 8.71901 2.21522 8.90063 2.13375L8.10937 3.03984H6.71766ZM2.34375 9.94921C2.34375 7.14234 4.61813 4.86796 7.425 4.86796C10.2319 4.86796 12.5063 7.14234 12.5016 9.94828V9.94921C12.5012 10.9126 12.1183 11.8364 11.4371 12.5176C10.7559 13.1988 9.83212 13.5817 8.86875 13.582H5.97656C5.0132 13.5817 4.08939 13.1988 3.40819 12.5176C2.72698 11.8364 2.34412 10.9126 2.34375 9.94921Z" fill="white"/>
</svg>
